<svg width="24" height="25" viewBox="0 0 24 25" fill="none" xmlns="http://www.w3.org/2000/svg">
<path d="M21.375 24.0686H21.3978C21.9714 24.0627 22.5202 23.8323 22.9262 23.4262C23.3376 23.0148 23.5688 22.4568 23.5688 21.875V11.0401C23.5685 10.7344 23.5045 10.4322 23.3808 10.1526C23.2572 9.8731 23.0767 9.62243 22.8507 9.41659L21.375 24.0686ZM21.375 24.0686H21.3748L15.7491 24.0679C15.1675 24.0672 14.61 23.8358 14.1988 23.4245C13.7875 23.0132 13.5562 22.4556 13.5555 21.874V16.7178V16.5678H13.4055H10.593H10.443V16.7178V21.8739C10.4424 22.4555 10.2111 23.0131 9.7998 23.4244C9.38855 23.8357 8.83097 24.0671 8.24934 24.0678L2.62533 24.0688C2.33721 24.0688 2.05191 24.0121 1.78572 23.9019C1.51952 23.7916 1.27764 23.6301 1.0739 23.4263C0.870158 23.2226 0.708538 22.9808 0.598271 22.7146C0.488004 22.4484 0.43125 22.1631 0.43125 21.875V11.0399C0.431489 10.7342 0.495482 10.432 0.61914 10.1524C0.742807 9.87288 0.923428 9.6222 1.14946 9.41639L10.5234 0.893065L10.5238 0.892702C10.9266 0.523824 11.453 0.3192 11.9991 0.319159C12.5453 0.319118 13.0717 0.523664 13.4745 0.892483L13.4749 0.892837L22.8506 9.41648L21.375 24.0686ZM16.068 21.4054V21.5554L16.218 21.5554L20.9062 21.5563L21.0562 21.5563V21.4063V11.2473V11.1809L21.0072 11.1363L12.1002 3.03863L11.9993 2.94689L11.8984 3.03864L2.99284 11.1361L2.94375 11.1807V11.247V21.406V21.556L3.09377 21.556L7.78057 21.5554L7.93055 21.5554V21.4054V16.2492C7.93121 15.6676 8.16257 15.1099 8.57387 14.6986C8.98516 14.2873 9.54281 14.056 10.1245 14.0553H13.8741C14.4558 14.056 15.0134 14.2873 15.4247 14.6986C15.836 15.1099 16.0674 15.6676 16.068 16.2492V21.4054Z" fill="black" fill-opacity="0.4" stroke="white" stroke-width="0.3"/>
</svg>
