<svg width="8" height="15" viewBox="0 0 8 15" fill="none" xmlns="http://www.w3.org/2000/svg">
<path d="M7.00028 7.5C7.00073 7.73365 6.91936 7.96009 6.77028 8.14L1.77028 14.14C1.60054 14.3442 1.35663 14.4726 1.0922 14.497C0.827773 14.5214 0.564492 14.4397 0.360275 14.27C0.156059 14.1003 0.0276347 13.8563 0.00325492 13.5919C-0.0211248 13.3275 0.0605366 13.0642 0.230275 12.86L4.71028 7.5L0.390275 2.14C0.307209 2.03771 0.245178 1.92001 0.207746 1.79368C0.170314 1.66734 0.15822 1.53485 0.17216 1.40382C0.186099 1.27279 0.225796 1.14581 0.288969 1.03017C0.352143 0.914533 0.437548 0.812521 0.540275 0.729999C0.643096 0.638419 0.763723 0.569059 0.894597 0.526267C1.02547 0.483475 1.16377 0.468172 1.30083 0.481315C1.4379 0.494457 1.57077 0.535764 1.69113 0.602647C1.81148 0.66953 1.91673 0.760549 2.00028 0.87L6.83028 6.87C6.95579 7.05508 7.01565 7.2769 7.00028 7.5Z" fill="black"/>
</svg>
