<svg width="18" height="21" viewBox="0 0 18 21" fill="none" xmlns="http://www.w3.org/2000/svg">
<path d="M9.66059 1.75275L8.31676 1.75C5.25142 1.74267 2.59034 4.23325 2.56926 7.25V12.5575C2.56926 13.2817 2.47759 13.9884 2.08251 14.5907L1.81942 14.9922C1.41884 15.6008 1.84967 16.4167 2.56926 16.4167H15.4301C16.1497 16.4167 16.5796 15.6008 16.1799 14.9922L15.9168 14.5907C15.5227 13.9884 15.4301 13.2808 15.4301 12.5566V7.25092C15.3934 4.23325 12.7259 1.76008 9.66059 1.75275V1.75275Z" stroke="black" stroke-width="2" stroke-linecap="round" stroke-linejoin="round"/>
<path d="M11.75 16.4167C11.75 17.146 11.4603 17.8455 10.9445 18.3612C10.4288 18.8769 9.72935 19.1667 9 19.1667C8.27065 19.1667 7.57118 18.8769 7.05546 18.3612C6.53973 17.8455 6.25 17.146 6.25 16.4167" stroke="black" stroke-width="2" stroke-linecap="round" stroke-linejoin="round"/>
</svg>
