<svg width="20" height="14" viewBox="0 0 20 14" fill="none" xmlns="http://www.w3.org/2000/svg">
<path d="M0.833008 1.49999C0.833008 1.25688 0.929585 1.02372 1.10149 0.851814C1.2734 0.679906 1.50656 0.583328 1.74967 0.583328H18.2497C18.4928 0.583328 18.7259 0.679906 18.8979 0.851814C19.0698 1.02372 19.1663 1.25688 19.1663 1.49999C19.1663 1.74311 19.0698 1.97627 18.8979 2.14818C18.7259 2.32008 18.4928 2.41666 18.2497 2.41666H1.74967C1.50656 2.41666 1.2734 2.32008 1.10149 2.14818C0.929585 1.97627 0.833008 1.74311 0.833008 1.49999Z" fill="black"/>
<path d="M0.833008 7.02932C0.833008 6.78621 0.929585 6.55305 1.10149 6.38114C1.2734 6.20923 1.50656 6.11266 1.74967 6.11266H18.2497C18.4928 6.11266 18.7259 6.20923 18.8979 6.38114C19.0698 6.55305 19.1663 6.78621 19.1663 7.02932C19.1663 7.27244 19.0698 7.5056 18.8979 7.6775C18.7259 7.84941 18.4928 7.94599 18.2497 7.94599H1.74967C1.50656 7.94599 1.2734 7.84941 1.10149 7.6775C0.929585 7.5056 0.833008 7.27244 0.833008 7.02932Z" fill="black"/>
<path d="M1.74967 11.642C1.50656 11.642 1.2734 11.7386 1.10149 11.9105C0.929585 12.0824 0.833008 12.3155 0.833008 12.5587C0.833008 12.8018 0.929585 13.0349 1.10149 13.2068C1.2734 13.3788 1.50656 13.4753 1.74967 13.4753H18.2497C18.4928 13.4753 18.7259 13.3788 18.8979 13.2068C19.0698 13.0349 19.1663 12.8018 19.1663 12.5587C19.1663 12.3155 19.0698 12.0824 18.8979 11.9105C18.7259 11.7386 18.4928 11.642 18.2497 11.642H1.74967Z" fill="black"/>
</svg>
