<svg width="15" height="9" viewBox="0 0 15 9" fill="none" xmlns="http://www.w3.org/2000/svg">
<path d="M7.66727 8C7.43362 8.00046 7.20718 7.91908 7.02727 7.77L1.02727 2.77C0.823051 2.60026 0.694627 2.35635 0.670247 2.09192C0.645867 1.8275 0.727529 1.56422 0.897268 1.36C1.06701 1.15578 1.31092 1.02736 1.57534 1.00298C1.83977 0.978601 2.10305 1.06026 2.30727 1.23L7.66727 5.71L13.0273 1.39C13.1296 1.30694 13.2473 1.2449 13.3736 1.20747C13.4999 1.17004 13.6324 1.15795 13.7634 1.17189C13.8945 1.18582 14.0215 1.22552 14.1371 1.2887C14.2527 1.35187 14.3547 1.43727 14.4373 1.54C14.5288 1.64282 14.5982 1.76345 14.641 1.89432C14.6838 2.0252 14.6991 2.1635 14.686 2.30056C14.6728 2.43762 14.6315 2.5705 14.5646 2.69085C14.4977 2.81121 14.4067 2.91646 14.2973 3L8.29727 7.83C8.11218 7.95552 7.89037 8.01537 7.66727 8Z" fill="black"/>
</svg>
