<svg width="10" height="9" viewBox="0 0 10 9" fill="none" xmlns="http://www.w3.org/2000/svg">
<path d="M6.09485 4.41667L9.04068 1.47C9.12028 1.39313 9.18376 1.30118 9.22743 1.19951C9.27111 1.09784 9.2941 0.988486 9.29506 0.877837C9.29602 0.767187 9.27494 0.657454 9.23304 0.55504C9.19113 0.452627 9.12926 0.359583 9.05101 0.281339C8.97277 0.203096 8.87972 0.141218 8.77731 0.0993172C8.6749 0.0574165 8.56517 0.0363319 8.45452 0.0372934C8.34387 0.0382549 8.23452 0.0612435 8.13285 0.104918C8.03118 0.148592 7.93922 0.212077 7.86235 0.291669L4.91568 3.2375L1.96985 0.291669C1.89298 0.212077 1.80102 0.148592 1.69935 0.104918C1.59768 0.0612435 1.48833 0.0382549 1.37768 0.0372934C1.26703 0.0363319 1.1573 0.0574165 1.05489 0.0993172C0.952474 0.141218 0.859431 0.203096 0.781187 0.281339C0.702943 0.359583 0.641065 0.452627 0.599165 0.55504C0.557264 0.657454 0.536179 0.767187 0.537141 0.877837C0.538102 0.988486 0.561091 1.09784 0.604765 1.19951C0.648439 1.30118 0.711924 1.39313 0.791516 1.47L3.73735 4.41584L0.791516 7.3625C0.711924 7.43937 0.648439 7.53133 0.604765 7.633C0.561091 7.73467 0.538102 7.84402 0.537141 7.95467C0.536179 8.06532 0.557264 8.17505 0.599165 8.27746C0.641065 8.37988 0.702943 8.47292 0.781187 8.55116C0.859431 8.62941 0.952474 8.69129 1.05489 8.73319C1.1573 8.77509 1.26703 8.79617 1.37768 8.79521C1.48833 8.79425 1.59768 8.77126 1.69935 8.72759C1.80102 8.68391 1.89298 8.62043 1.96985 8.54084L4.91568 5.595L7.86235 8.54084C7.93922 8.62043 8.03118 8.68391 8.13285 8.72759C8.23452 8.77126 8.34387 8.79425 8.45452 8.79521C8.56517 8.79617 8.6749 8.77509 8.77731 8.73319C8.87972 8.69129 8.97277 8.62941 9.05101 8.55116C9.12926 8.47292 9.19113 8.37988 9.23304 8.27746C9.27494 8.17505 9.29602 8.06532 9.29506 7.95467C9.2941 7.84402 9.27111 7.73467 9.22743 7.633C9.18376 7.53133 9.12028 7.43937 9.04068 7.3625L6.09485 4.41584V4.41667Z" fill="black"/>
</svg>
